<mxfile host="app.diagrams.net" modified="2021-01-29T04:13:39.864Z" agent="5.0 (Macintosh; Intel Mac OS X 10_15_6) AppleWebKit/605.1.15 (KHTML, like Gecko) Version/14.0.2 Safari/605.1.15" etag="1E7Z9ay02a5rae_LH_4F" version="14.2.7" type="github">
  <diagram id="kgpKYQtTHZ0yAKxKKP6v" name="Page-1">
    <mxGraphModel dx="1082" dy="623" grid="1" gridSize="10" guides="1" tooltips="1" connect="1" arrows="1" fold="1" page="1" pageScale="1" pageWidth="850" pageHeight="1100" math="0" shadow="0">
      <root>
        <mxCell id="0" />
        <mxCell id="1" parent="0" />
        <mxCell id="3vN4K4ym8y1vEtiWNW1v-5" value="SUPPLIER_INFO" style="shape=table;startSize=30;container=1;collapsible=1;childLayout=tableLayout;fixedRows=1;rowLines=0;fontStyle=1;align=center;resizeLast=1;" vertex="1" parent="1">
          <mxGeometry x="140" y="62" width="180" height="90" as="geometry" />
        </mxCell>
        <mxCell id="3vN4K4ym8y1vEtiWNW1v-6" value="" style="shape=partialRectangle;collapsible=0;dropTarget=0;pointerEvents=0;fillColor=none;top=0;left=0;bottom=1;right=0;points=[[0,0.5],[1,0.5]];portConstraint=eastwest;" vertex="1" parent="3vN4K4ym8y1vEtiWNW1v-5">
          <mxGeometry y="30" width="180" height="30" as="geometry" />
        </mxCell>
        <mxCell id="3vN4K4ym8y1vEtiWNW1v-7" value="PK" style="shape=partialRectangle;connectable=0;fillColor=none;top=0;left=0;bottom=0;right=0;fontStyle=1;overflow=hidden;" vertex="1" parent="3vN4K4ym8y1vEtiWNW1v-6">
          <mxGeometry width="30" height="30" as="geometry" />
        </mxCell>
        <mxCell id="3vN4K4ym8y1vEtiWNW1v-8" value="id" style="shape=partialRectangle;connectable=0;fillColor=none;top=0;left=0;bottom=0;right=0;align=left;spacingLeft=6;fontStyle=5;overflow=hidden;" vertex="1" parent="3vN4K4ym8y1vEtiWNW1v-6">
          <mxGeometry x="30" width="150" height="30" as="geometry" />
        </mxCell>
        <mxCell id="3vN4K4ym8y1vEtiWNW1v-9" value="" style="shape=partialRectangle;collapsible=0;dropTarget=0;pointerEvents=0;fillColor=none;top=0;left=0;bottom=0;right=0;points=[[0,0.5],[1,0.5]];portConstraint=eastwest;" vertex="1" parent="3vN4K4ym8y1vEtiWNW1v-5">
          <mxGeometry y="60" width="180" height="30" as="geometry" />
        </mxCell>
        <mxCell id="3vN4K4ym8y1vEtiWNW1v-10" value="" style="shape=partialRectangle;connectable=0;fillColor=none;top=0;left=0;bottom=0;right=0;editable=1;overflow=hidden;" vertex="1" parent="3vN4K4ym8y1vEtiWNW1v-9">
          <mxGeometry width="30" height="30" as="geometry" />
        </mxCell>
        <mxCell id="3vN4K4ym8y1vEtiWNW1v-11" value="其它字段" style="shape=partialRectangle;connectable=0;fillColor=none;top=0;left=0;bottom=0;right=0;align=left;spacingLeft=6;overflow=hidden;" vertex="1" parent="3vN4K4ym8y1vEtiWNW1v-9">
          <mxGeometry x="30" width="150" height="30" as="geometry" />
        </mxCell>
        <mxCell id="3vN4K4ym8y1vEtiWNW1v-32" value="SUPPLIER_ASSUME_INFO(供应商担当)" style="shape=table;startSize=30;container=1;collapsible=1;childLayout=tableLayout;fixedRows=1;rowLines=0;fontStyle=1;align=center;resizeLast=1;" vertex="1" parent="1">
          <mxGeometry x="90" y="232" width="260" height="120" as="geometry" />
        </mxCell>
        <mxCell id="3vN4K4ym8y1vEtiWNW1v-33" value="" style="shape=partialRectangle;collapsible=0;dropTarget=0;pointerEvents=0;fillColor=none;top=0;left=0;bottom=1;right=0;points=[[0,0.5],[1,0.5]];portConstraint=eastwest;" vertex="1" parent="3vN4K4ym8y1vEtiWNW1v-32">
          <mxGeometry y="30" width="260" height="30" as="geometry" />
        </mxCell>
        <mxCell id="3vN4K4ym8y1vEtiWNW1v-34" value="PK" style="shape=partialRectangle;connectable=0;fillColor=none;top=0;left=0;bottom=0;right=0;fontStyle=1;overflow=hidden;" vertex="1" parent="3vN4K4ym8y1vEtiWNW1v-33">
          <mxGeometry width="30" height="30" as="geometry" />
        </mxCell>
        <mxCell id="3vN4K4ym8y1vEtiWNW1v-35" value="id" style="shape=partialRectangle;connectable=0;fillColor=none;top=0;left=0;bottom=0;right=0;align=left;spacingLeft=6;fontStyle=5;overflow=hidden;" vertex="1" parent="3vN4K4ym8y1vEtiWNW1v-33">
          <mxGeometry x="30" width="230" height="30" as="geometry" />
        </mxCell>
        <mxCell id="3vN4K4ym8y1vEtiWNW1v-36" value="" style="shape=partialRectangle;collapsible=0;dropTarget=0;pointerEvents=0;fillColor=none;top=0;left=0;bottom=0;right=0;points=[[0,0.5],[1,0.5]];portConstraint=eastwest;" vertex="1" parent="3vN4K4ym8y1vEtiWNW1v-32">
          <mxGeometry y="60" width="260" height="30" as="geometry" />
        </mxCell>
        <mxCell id="3vN4K4ym8y1vEtiWNW1v-37" value="" style="shape=partialRectangle;connectable=0;fillColor=none;top=0;left=0;bottom=0;right=0;editable=1;overflow=hidden;" vertex="1" parent="3vN4K4ym8y1vEtiWNW1v-36">
          <mxGeometry width="30" height="30" as="geometry" />
        </mxCell>
        <mxCell id="3vN4K4ym8y1vEtiWNW1v-38" value="SUPPLIER_ID(供应商ID)" style="shape=partialRectangle;connectable=0;fillColor=none;top=0;left=0;bottom=0;right=0;align=left;spacingLeft=6;overflow=hidden;" vertex="1" parent="3vN4K4ym8y1vEtiWNW1v-36">
          <mxGeometry x="30" width="230" height="30" as="geometry" />
        </mxCell>
        <mxCell id="3vN4K4ym8y1vEtiWNW1v-40" value="" style="shape=partialRectangle;collapsible=0;dropTarget=0;pointerEvents=0;fillColor=none;top=0;left=0;bottom=0;right=0;points=[[0,0.5],[1,0.5]];portConstraint=eastwest;" vertex="1" parent="3vN4K4ym8y1vEtiWNW1v-32">
          <mxGeometry y="90" width="260" height="30" as="geometry" />
        </mxCell>
        <mxCell id="3vN4K4ym8y1vEtiWNW1v-41" value="" style="shape=partialRectangle;connectable=0;fillColor=none;top=0;left=0;bottom=0;right=0;editable=1;overflow=hidden;" vertex="1" parent="3vN4K4ym8y1vEtiWNW1v-40">
          <mxGeometry width="30" height="30" as="geometry" />
        </mxCell>
        <mxCell id="3vN4K4ym8y1vEtiWNW1v-42" value="ASSUME_ID(担当ID)" style="shape=partialRectangle;connectable=0;fillColor=none;top=0;left=0;bottom=0;right=0;align=left;spacingLeft=6;overflow=hidden;" vertex="1" parent="3vN4K4ym8y1vEtiWNW1v-40">
          <mxGeometry x="30" width="230" height="30" as="geometry" />
        </mxCell>
        <mxCell id="3vN4K4ym8y1vEtiWNW1v-43" value="SUPPLIER_TURNOVER_INFO(供应商营业额)" style="shape=table;startSize=30;container=1;collapsible=1;childLayout=tableLayout;fixedRows=1;rowLines=0;fontStyle=1;align=center;resizeLast=1;" vertex="1" parent="1">
          <mxGeometry x="480" y="62" width="260" height="90" as="geometry" />
        </mxCell>
        <mxCell id="3vN4K4ym8y1vEtiWNW1v-44" value="" style="shape=partialRectangle;collapsible=0;dropTarget=0;pointerEvents=0;fillColor=none;top=0;left=0;bottom=1;right=0;points=[[0,0.5],[1,0.5]];portConstraint=eastwest;" vertex="1" parent="3vN4K4ym8y1vEtiWNW1v-43">
          <mxGeometry y="30" width="260" height="30" as="geometry" />
        </mxCell>
        <mxCell id="3vN4K4ym8y1vEtiWNW1v-45" value="PK" style="shape=partialRectangle;connectable=0;fillColor=none;top=0;left=0;bottom=0;right=0;fontStyle=1;overflow=hidden;" vertex="1" parent="3vN4K4ym8y1vEtiWNW1v-44">
          <mxGeometry width="30" height="30" as="geometry" />
        </mxCell>
        <mxCell id="3vN4K4ym8y1vEtiWNW1v-46" value="id" style="shape=partialRectangle;connectable=0;fillColor=none;top=0;left=0;bottom=0;right=0;align=left;spacingLeft=6;fontStyle=5;overflow=hidden;" vertex="1" parent="3vN4K4ym8y1vEtiWNW1v-44">
          <mxGeometry x="30" width="230" height="30" as="geometry" />
        </mxCell>
        <mxCell id="3vN4K4ym8y1vEtiWNW1v-47" value="" style="shape=partialRectangle;collapsible=0;dropTarget=0;pointerEvents=0;fillColor=none;top=0;left=0;bottom=0;right=0;points=[[0,0.5],[1,0.5]];portConstraint=eastwest;" vertex="1" parent="3vN4K4ym8y1vEtiWNW1v-43">
          <mxGeometry y="60" width="260" height="30" as="geometry" />
        </mxCell>
        <mxCell id="3vN4K4ym8y1vEtiWNW1v-48" value="" style="shape=partialRectangle;connectable=0;fillColor=none;top=0;left=0;bottom=0;right=0;editable=1;overflow=hidden;" vertex="1" parent="3vN4K4ym8y1vEtiWNW1v-47">
          <mxGeometry width="30" height="30" as="geometry" />
        </mxCell>
        <mxCell id="3vN4K4ym8y1vEtiWNW1v-49" value="SUPPLIER_ID(供应商ID)" style="shape=partialRectangle;connectable=0;fillColor=none;top=0;left=0;bottom=0;right=0;align=left;spacingLeft=6;overflow=hidden;" vertex="1" parent="3vN4K4ym8y1vEtiWNW1v-47">
          <mxGeometry x="30" width="230" height="30" as="geometry" />
        </mxCell>
        <mxCell id="3vN4K4ym8y1vEtiWNW1v-53" value="SUPPLIER_SANCTION_INFO(供应商处分信息)" style="shape=table;startSize=30;container=1;collapsible=1;childLayout=tableLayout;fixedRows=1;rowLines=0;fontStyle=1;align=center;resizeLast=1;" vertex="1" parent="1">
          <mxGeometry x="440" y="232" width="260" height="90" as="geometry" />
        </mxCell>
        <mxCell id="3vN4K4ym8y1vEtiWNW1v-54" value="" style="shape=partialRectangle;collapsible=0;dropTarget=0;pointerEvents=0;fillColor=none;top=0;left=0;bottom=1;right=0;points=[[0,0.5],[1,0.5]];portConstraint=eastwest;" vertex="1" parent="3vN4K4ym8y1vEtiWNW1v-53">
          <mxGeometry y="30" width="260" height="30" as="geometry" />
        </mxCell>
        <mxCell id="3vN4K4ym8y1vEtiWNW1v-55" value="PK" style="shape=partialRectangle;connectable=0;fillColor=none;top=0;left=0;bottom=0;right=0;fontStyle=1;overflow=hidden;" vertex="1" parent="3vN4K4ym8y1vEtiWNW1v-54">
          <mxGeometry width="30" height="30" as="geometry" />
        </mxCell>
        <mxCell id="3vN4K4ym8y1vEtiWNW1v-56" value="id" style="shape=partialRectangle;connectable=0;fillColor=none;top=0;left=0;bottom=0;right=0;align=left;spacingLeft=6;fontStyle=5;overflow=hidden;" vertex="1" parent="3vN4K4ym8y1vEtiWNW1v-54">
          <mxGeometry x="30" width="230" height="30" as="geometry" />
        </mxCell>
        <mxCell id="3vN4K4ym8y1vEtiWNW1v-57" value="" style="shape=partialRectangle;collapsible=0;dropTarget=0;pointerEvents=0;fillColor=none;top=0;left=0;bottom=0;right=0;points=[[0,0.5],[1,0.5]];portConstraint=eastwest;" vertex="1" parent="3vN4K4ym8y1vEtiWNW1v-53">
          <mxGeometry y="60" width="260" height="30" as="geometry" />
        </mxCell>
        <mxCell id="3vN4K4ym8y1vEtiWNW1v-58" value="" style="shape=partialRectangle;connectable=0;fillColor=none;top=0;left=0;bottom=0;right=0;editable=1;overflow=hidden;" vertex="1" parent="3vN4K4ym8y1vEtiWNW1v-57">
          <mxGeometry width="30" height="30" as="geometry" />
        </mxCell>
        <mxCell id="3vN4K4ym8y1vEtiWNW1v-59" value="SUPPLIER_ID(供应商ID)" style="shape=partialRectangle;connectable=0;fillColor=none;top=0;left=0;bottom=0;right=0;align=left;spacingLeft=6;overflow=hidden;" vertex="1" parent="3vN4K4ym8y1vEtiWNW1v-57">
          <mxGeometry x="30" width="230" height="30" as="geometry" />
        </mxCell>
        <mxCell id="3vN4K4ym8y1vEtiWNW1v-67" value="" style="edgeStyle=entityRelationEdgeStyle;fontSize=12;html=1;endArrow=ERmandOne;startArrow=ERmandOne;exitX=1;exitY=0.5;exitDx=0;exitDy=0;" edge="1" parent="1" source="3vN4K4ym8y1vEtiWNW1v-6">
          <mxGeometry width="100" height="100" relative="1" as="geometry">
            <mxPoint x="385" y="242" as="sourcePoint" />
            <mxPoint x="485" y="142" as="targetPoint" />
          </mxGeometry>
        </mxCell>
        <mxCell id="3vN4K4ym8y1vEtiWNW1v-68" value="" style="edgeStyle=entityRelationEdgeStyle;fontSize=12;html=1;endArrow=ERmandOne;startArrow=ERmandOne;" edge="1" parent="1" source="3vN4K4ym8y1vEtiWNW1v-6">
          <mxGeometry width="100" height="100" relative="1" as="geometry">
            <mxPoint x="275" y="259.5" as="sourcePoint" />
            <mxPoint x="440" y="294.5000000000001" as="targetPoint" />
          </mxGeometry>
        </mxCell>
        <mxCell id="3vN4K4ym8y1vEtiWNW1v-72" value="" style="edgeStyle=entityRelationEdgeStyle;fontSize=12;html=1;endArrow=ERzeroToOne;startArrow=ERmandOne;entryX=-0.01;entryY=0.965;entryDx=0;entryDy=0;entryPerimeter=0;exitX=0;exitY=0;exitDx=0;exitDy=0;" edge="1" parent="1" source="3vN4K4ym8y1vEtiWNW1v-32" target="3vN4K4ym8y1vEtiWNW1v-6">
          <mxGeometry width="100" height="100" relative="1" as="geometry">
            <mxPoint x="20" y="262" as="sourcePoint" />
            <mxPoint x="120" y="162" as="targetPoint" />
          </mxGeometry>
        </mxCell>
      </root>
    </mxGraphModel>
  </diagram>
</mxfile>
